<?xml version="1.0" encoding="UTF-8" standalone="no"?> <!-- Created with Vectornator for iOS (http://vectornator.io/) --><!DOCTYPE svg PUBLIC "-//W3C//DTD SVG 1.1//EN" "http://www.w3.org/Graphics/SVG/1.1/DTD/svg11.dtd">
<svg height="100%" style="fill-rule:nonzero;clip-rule:evenodd;stroke-linecap:round;stroke-linejoin:round;" xmlns:xlink="http://www.w3.org/1999/xlink" xmlns="http://www.w3.org/2000/svg" xml:space="preserve" width="100%" xmlns:vectornator="http://vectornator.io" version="1.1" viewBox="0 0 1058.6 278.04">
<metadata>
<vectornator:setting key="DimensionsVisible" value="1"/>
<vectornator:setting key="PencilOnly" value="0"/>
<vectornator:setting key="SnapToPoints" value="0"/>
<vectornator:setting key="GuidesVisible" value="1"/>
<vectornator:setting key="RulersVisible" value="1"/>
<vectornator:setting key="CMYKEnabledKey" value="0"/>
<vectornator:setting key="SnapToEdges" value="0"/>
<vectornator:setting key="OutlineMode" value="0"/>
<vectornator:setting key="DisplayWhiteBackground" value="0"/>
<vectornator:setting key="doHistoryDisabled" value="0"/>
<vectornator:setting key="TimeLapseWatermarkDisabled" value="0"/>
<vectornator:setting key="SnapToGuides" value="1"/>
<vectornator:setting key="DynamicGuides" value="0"/>
<vectornator:setting key="Units" value="Points"/>
<vectornator:setting key="SnapToGrid" value="0"/>
<vectornator:setting key="IsolateActiveLayer" value="0"/>
</metadata>
<defs/>
<g id="logo" vectornator:layerName="logo">
<g opacity="1">
<path stroke="#ffffff" fill-rule="evenodd" stroke-width="6" d="M377.157+143.156L421.53+143.156C424.653+143.156+426.605+140.683+426.605+137.69C426.605+134.437+424.783+132.095+421.53+132.095L377.157+132.095L377.157+105.158C377.157+102.035+378.458+100.604+381.581+100.604L427.386+100.604C430.769+100.604+432.591+98.1325+432.591+94.8785C432.591+91.6255+430.769+89.2835+427.386+89.2835L378.198+89.2835C368.959+89.2835+364.925+93.3175+364.925+103.337L364.925+176.729C364.925+186.618+368.959+190.652+378.198+190.652L428.557+190.652C431.94+190.652+433.762+188.05+433.762+184.927C433.762+181.673+431.94+179.331+428.557+179.331L381.971+179.331C379.109+179.331+377.157+178.16+377.157+175.167L377.157+143.156Z" fill="#ffffff" stroke-linecap="round" opacity="1" stroke-linejoin="round"/>
<path stroke="#ffffff" fill-rule="evenodd" stroke-width="6" d="M515.244+132.792C515.244+151.53+516.545+170.399+517.326+178.467C513.943+171.18+506.656+157.256+500.67+147.497L467.878+94.2745C465.405+90.3705+463.193+88.0285+457.337+88.0285C452.262+88.0285+449.139+91.0215+449.139+95.8365L449.139+185.625C449.139+189.137+451.742+190.959+455.385+190.959C458.899+190.959+461.501+189.137+461.501+185.625L461.501+145.675C461.501+126.546+460.46+108.458+459.68+100.13C462.673+106.636+469.179+119.389+474.384+127.717L508.868+183.542C512.121+188.747+514.203+190.959+519.799+190.959C525.004+190.959+527.606+187.836+527.606+182.761L527.606+93.3635C527.606+89.7205+525.134+88.0285+521.49+88.0285C517.847+88.0285+515.244+89.7205+515.244+93.3635L515.244+132.792Z" fill="#ffffff" stroke-linecap="round" opacity="1" stroke-linejoin="round"/>
<path stroke="#ffffff" fill-rule="evenodd" stroke-width="6" d="M576.947+102.239L576.947+187.603C576.947+191.116+579.679+192.938+583.193+192.938C586.706+192.938+589.439+191.116+589.439+187.603L589.439+102.239L618.978+102.239C621.971+102.239+623.923+99.6375+623.923+96.6445C623.923+93.5215+622.101+90.7885+618.978+90.7885L547.278+90.7885C544.155+90.7885+542.333+93.5215+542.333+96.6445C542.333+99.6375+544.155+102.239+547.408+102.239L576.947+102.239Z" fill="#ffffff" stroke-linecap="round" opacity="1" stroke-linejoin="round"/>
<path stroke="#ffffff" fill-rule="evenodd" stroke-width="6" d="M689.433+161.392L734.457+161.392L744.737+188.328C745.648+190.801+747.73+191.972+750.072+191.972C750.853+191.972+751.634+191.842+752.415+191.582C755.017+190.931+757.099+188.979+757.099+186.378C757.099+185.596+756.969+184.945+756.579+184.164L721.184+95.0275C719.492+90.6035+716.109+88.9115+711.945+88.9115C707.911+88.9115+704.658+90.6035+702.966+95.0275L667.571+183.904C667.311+184.685+667.181+185.336+667.181+186.116C667.181+188.589+669.133+190.801+671.735+191.451C672.646+191.712+673.427+191.842+674.338+191.842C676.55+191.842+678.502+190.801+679.413+188.198L689.433+161.392ZM693.337+150.461L708.041+112.724C709.603+108.82+710.904+104.656+712.075+100.232C713.246+104.656+714.678+108.82+716.109+112.594L730.553+150.461L693.337+150.461Z" fill="#ffffff" stroke-linecap="round" opacity="1" stroke-linejoin="round"/>
<path stroke="#ffffff" fill-rule="evenodd" stroke-width="6" d="M846.779+177.109C837.15+152.775+832.986+144.057+825.178+141.715C837.28+139.112+845.738+131.304+845.738+116.34C845.738+100.334+835.328+90.3145+816.459+90.3145L786.01+90.3145C776.771+90.3145+772.737+94.3485+772.737+104.368L772.737+186.87C772.737+190.643+775.339+192.464+778.983+192.464C782.496+192.464+784.969+190.643+784.969+187L784.969+146.139L808.912+146.139C821.925+146.139+825.568+155.378+834.938+180.753L838.191+189.081C839.102+191.423+841.054+192.464+843.266+192.464C844.177+192.464+845.218+192.334+846.129+192.074C848.731+191.423+850.423+189.471+850.423+187C850.423+186.219+850.293+185.568+850.032+184.787L846.779+177.109ZM784.969+135.468L784.969+105.669C784.969+102.546+786.53+101.115+789.263+101.115L815.679+101.115C827.26+101.115+833.246+107.101+833.246+118.161C833.246+128.572+825.959+135.468+814.898+135.468L784.969+135.468Z" fill="#ffffff" stroke-linecap="round" opacity="1" stroke-linejoin="round"/>
<path stroke="#ffffff" fill-rule="evenodd" stroke-width="6" d="M892.997+101.291L892.997+186.655C892.997+190.169+895.729+191.99+899.243+191.99C902.756+191.99+905.489+190.169+905.489+186.655L905.489+101.291L935.028+101.291C938.021+101.291+939.973+98.6895+939.973+95.6965C939.973+92.5735+938.151+89.8405+935.028+89.8405L863.328+89.8405C860.204+89.8405+858.383+92.5735+858.383+95.6965C858.383+98.6895+860.204+101.291+863.458+101.291L892.997+101.291Z" fill="#ffffff" stroke-linecap="round" opacity="1" stroke-linejoin="round"/>
<path stroke="#ffffff" stroke-width="10" d="M118.631+63.5445L281.992+63.5445L281.992+214.495L118.631+214.495L118.631+63.5445Z" fill="none" stroke-linecap="round" opacity="1" stroke-linejoin="round"/>
<path stroke="#ffffff" stroke-width="10" d="M214.042+95.7415C214.042+95.7415+200.004+81.7065+184.988+81.7065C161.898+81.7065+147.67+96.0665+147.67+117.019C147.67+132.087+158.631+140.323+162.83+155.624C167.494+173.042+169.362+195.386+180.324+195.386C186.155+195.386+188.628+190.699+188.628+183.165C188.628+172.572+188.418+148.88+198.847+148.88C209.276+148.88+209.107+172.572+209.107+183.165C209.107+190.699+211.58+195.386+217.406+195.386C228.368+195.386+230.236+172.805+234.9+155.624C239.099+140.323+250.06+132.082+250.06+117.019C250.295+96.0665+235.438+81.7065+214.575+81.7065C209.056+81.7065+198.678+84.5795+198.678+84.5795" fill="none" stroke-linecap="round" opacity="1" stroke-linejoin="round"/>
<path stroke="#ffffff" stroke-width="32" d="M281.736+103.152C281.736+103.152+326.458+97.8385+326.458+142.634C326.458+187.43+281.962+181.452+281.962+181.452" fill="none" stroke-linecap="butt" opacity="1" stroke-linejoin="miter"/>
</g>
</g>
</svg>
