<?xml version="1.0" encoding="UTF-8" standalone="no"?> <!-- Created with Vectornator for iOS (http://vectornator.io/) --><!DOCTYPE svg PUBLIC "-//W3C//DTD SVG 1.1//EN" "http://www.w3.org/Graphics/SVG/1.1/DTD/svg11.dtd">
<svg height="100%" style="fill-rule:nonzero;clip-rule:evenodd;stroke-linecap:round;stroke-linejoin:round;" xmlns:xlink="http://www.w3.org/1999/xlink" xmlns="http://www.w3.org/2000/svg" xml:space="preserve" width="100%" xmlns:vectornator="http://vectornator.io" version="1.1" viewBox="0 0 1000 983.099">
<metadata>
<vectornator:setting key="DimensionsVisible" value="1"/>
<vectornator:setting key="PencilOnly" value="0"/>
<vectornator:setting key="SnapToPoints" value="0"/>
<vectornator:setting key="OutlineMode" value="0"/>
<vectornator:setting key="CMYKEnabledKey" value="0"/>
<vectornator:setting key="RulersVisible" value="1"/>
<vectornator:setting key="SnapToEdges" value="0"/>
<vectornator:setting key="GuidesVisible" value="1"/>
<vectornator:setting key="DisplayWhiteBackground" value="0"/>
<vectornator:setting key="doHistoryDisabled" value="0"/>
<vectornator:setting key="SnapToGuides" value="1"/>
<vectornator:setting key="TimeLapseWatermarkDisabled" value="0"/>
<vectornator:setting key="Units" value="Points"/>
<vectornator:setting key="IsolateActiveLayer" value="0"/>
<vectornator:setting key="SnapToGrid" value="0"/>
<vectornator:setting key="DynamicGuides" value="0"/>
</metadata>
<defs/>
<g id="Layer 1" vectornator:layerName="Layer 1">
<g opacity="1">
<path d="M257.955+470.174C253.797+470.174+250.427+473.544+250.427+477.704C250.427+481.864+253.797+485.234+257.955+485.234C262.113+485.234+265.484+481.864+265.484+477.704C265.484+473.544+262.113+470.174+257.955+470.174ZM510.98+287.964C507.745+287.964+505.121+290.584+505.121+293.824C505.121+297.054+507.745+299.674+510.98+299.674C514.216+299.674+516.84+297.054+516.84+293.824C516.84+290.584+514.216+287.964+510.98+287.964Z" fill-rule="evenodd" fill="#ffffff" opacity="1"/>
<path d="M543.623+152.684C539.466+152.684+536.095+156.054+536.095+160.214C536.095+164.374+539.466+167.744+543.623+167.744C547.781+167.744+551.152+164.374+551.152+160.214C551.152+156.054+547.781+152.684+543.623+152.684ZM275.083+448.444C270.922+448.444+267.548+451.814+267.548+455.974C267.548+460.134+270.922+463.504+275.083+463.504C279.244+463.504+282.618+460.134+282.618+455.974C282.618+451.814+279.244+448.444+275.083+448.444Z" fill-rule="evenodd" fill="#f1bc19" opacity="1"/>
<path d="M542.302+203.034C369.056+203.034+228.613+343.484+228.613+516.724C228.613+689.974+369.056+830.414+542.302+830.414C715.548+830.414+855.987+689.974+855.987+516.724C855.987+343.484+715.548+203.034+542.302+203.034Z" fill-rule="evenodd" fill="#b8e4ff" opacity="1"/>
<path d="M585.471+180.304C566.991+180.304+552.011+195.284+552.011+213.764C552.011+232.244+566.991+247.224+585.471+247.224C603.95+247.224+618.927+232.244+618.927+213.764C618.927+195.284+603.95+180.304+585.471+180.304Z" fill-rule="evenodd" fill="#ff6b57" opacity="1"/>
<path d="M517.787+194.214C509.009+194.214+501.894+201.334+501.894+210.114C501.894+218.884+509.009+226.004+517.787+226.004C526.565+226.004+533.681+218.884+533.681+210.114C533.681+201.334+526.565+194.214+517.787+194.214Z" fill-rule="evenodd" fill="#ee3e54" opacity="1"/>
<path d="M496.378+155.094C490.694+155.084+485.437+158.104+482.593+163.034C479.748+167.954+479.748+174.014+482.593+178.934C485.437+183.854+490.694+186.884+496.378+186.874C502.062+186.884+507.318+183.854+510.162+178.934C513.007+174.014+513.007+167.954+510.162+163.034C507.318+158.104+502.062+155.084+496.378+155.094ZM177.473+307.394C158.993+307.394+144.012+322.374+144.012+340.854C144.012+359.334+158.993+374.314+177.473+374.314C195.952+374.314+210.933+359.334+210.933+340.854C210.933+322.374+195.952+307.394+177.473+307.394Z" fill-rule="evenodd" fill="#4ba5d1" opacity="1"/>
<path d="M218.568+420.384C209.79+420.384+202.674+427.494+202.674+436.274C202.674+445.054+209.79+452.164+218.568+452.164C227.345+452.164+234.461+445.054+234.461+436.274C234.461+427.494+227.345+420.384+218.568+420.384Z" fill-rule="evenodd" fill="#ee3e54" opacity="1"/>
<path d="M252.02+373.024C240.47+373.024+231.107+382.394+231.107+393.944C231.107+405.494+240.47+414.854+252.02+414.854C263.57+414.854+272.933+405.494+272.933+393.944C272.933+382.394+263.57+373.024+252.02+373.024Z" fill-rule="evenodd" fill="#ffffff" opacity="1"/>
<path d="M730.517+374.524L360.781+374.524C340.705+374.524+324.811+390.414+324.811+410.494L324.811+655.584C324.811+675.664+340.705+691.554+360.781+691.554L730.517+691.554C750.587+691.554+766.487+675.664+766.487+655.584L766.487+410.494C766.487+390.414+750.587+374.524+730.517+374.524ZM597.511+418.854C597.511+421.364+595.001+423.874+592.492+423.874L495.458+423.874C492.948+423.874+490.439+421.364+490.439+418.854L490.439+415.504C490.439+413.004+492.948+410.494+495.458+410.494L592.492+410.494C595.001+410.494+597.511+413.004+597.511+415.504L597.511+418.854Z" fill-rule="evenodd" fill="#fdfcee" opacity="1"/>
<path d="M730.517+694.904L360.781+694.904C339.032+694.904+321.465+677.334+321.465+655.584L321.465+410.494C321.465+388.744+339.032+371.174+360.781+371.174L730.517+371.174L730.517+371.174C752.267+371.174+769.827+388.744+769.827+410.494L769.827+655.584C769.827+677.334+752.267+694.904+730.517+694.904ZM360.781+377.864C342.378+377.864+327.321+392.924+327.321+411.324L327.321+655.584C327.321+673.984+342.378+689.044+360.781+689.044L730.517+689.044C748.918+689.044+763.977+673.984+763.977+655.584L763.977+410.494C763.977+392.084+748.918+377.034+730.517+377.034L360.781+377.034L360.781+377.864ZM592.492+427.224L495.458+427.224C491.275+427.224+487.093+423.874+487.093+418.854L487.093+415.504C487.093+411.324+490.439+407.144+495.458+407.144L592.492+407.144C596.674+407.144+600.857+410.494+600.857+415.504L600.857+418.854C600.857+423.034+596.674+427.224+592.492+427.224ZM495.458+413.004C494.621+413.004+493.785+413.834+493.785+414.674L493.785+418.014C493.785+418.854+494.621+419.694+495.458+419.694L592.492+419.694C593.328+419.694+594.165+418.854+594.165+418.014L594.165+414.674C594.165+413.834+593.328+413.004+592.492+413.004L495.458+413.004Z" fill-rule="evenodd" fill="#472b29" opacity="1"/>
<path d="M377.855+455.804L516.714+455.804L516.714+636.484L377.855+636.484L377.855+455.804Z" fill-rule="evenodd" fill="#fbcd59" opacity="1"/>
<path d="M513.861+638.014L375.001+638.014C373.328+638.014+371.655+636.344+371.655+634.674L371.655+453.984C371.655+452.314+373.328+450.644+375.001+450.644L513.861+450.644C515.534+450.644+517.207+452.314+517.207+453.984L517.207+634.674C516.37+636.344+515.534+638.014+513.861+638.014ZM378.347+631.324L510.515+631.324L510.515+457.334L378.347+457.334L378.347+631.324ZM716.298+467.374L557.359+467.374C555.686+467.374+554.849+466.534+554.849+464.864C554.849+463.194+555.686+462.354+557.359+462.354L716.298+462.354C717.967+462.354+718.807+463.194+718.807+464.864C718.807+466.534+717.127+467.374+716.298+467.374ZM716.298+504.174L557.359+504.174C555.686+504.174+554.849+503.344+554.849+501.664C554.849+499.994+555.686+499.154+557.359+499.154L716.298+499.154C717.967+499.154+718.807+499.994+718.807+501.664C718.807+503.344+717.127+504.174+716.298+504.174ZM693.707+540.984L557.359+540.984C555.686+540.984+554.849+540.144+554.849+538.474C554.849+536.804+555.686+535.964+557.359+535.964L693.707+535.964C695.377+535.964+696.217+536.804+696.217+538.474C696.217+540.144+694.548+540.984+693.707+540.984ZM639.337+577.794L557.359+577.794C555.686+577.794+554.849+576.954+554.849+575.284C554.849+573.604+555.686+572.774+557.359+572.774L639.337+572.774C641.007+572.774+641.847+573.604+641.847+575.284C641.847+576.954+641.007+577.794+639.337+577.794Z" fill-rule="evenodd" fill="#472b29" opacity="1"/>
<path d="M480.419+532.234L483.962+532.234C492.58+532.234+498.326+541.144+494.783+549.084L494.783+549.084C493.538+551.864+493.346+554.934+494.304+557.804L497.177+566.424C499.762+574.084+494.017+582.024+485.877+582.024L454.565+582.024" fill-rule="evenodd" fill="#ff6b57" opacity="1"/>
<path d="M483.483+532.234L482.526+532.234C478.6+513.654+462.034+499.674+442.308+499.674C422.582+499.674+406.016+513.654+402.09+532.234L401.133+532.234C394.238+532.234+388.684+537.784+388.684+544.684C388.684+551.574+394.238+557.134+401.133+557.134L404.484+557.134C410.804+571.784+425.359+582.024+442.308+582.024C459.257+582.024+473.812+571.784+480.132+557.134L483.483+557.134C490.378+557.134+495.932+551.574+495.932+544.684C495.932+537.784+490.378+532.234+483.483+532.234Z" fill-rule="evenodd" fill="#ffffff" opacity="1"/>
<path d="M404.005+540.854C404.005+537.884+404.388+535.014+404.963+532.234L400.462+532.234C391.844+532.234+386.099+541.144+389.642+549.084C390.887+551.864+391.078+554.934+390.121+557.804L387.248+566.424C384.663+574.084+390.408+582.024+398.547+582.024L423.157+582.024L419.039+571.304C409.942+564.314+404.005+553.304+404.005+540.854Z" fill-rule="evenodd" fill="#ff6b57" opacity="1"/>
<path d="M442.308+467.124C435.433+467.124+429.86+472.694+429.86+479.564C429.86+486.444+435.433+492.014+442.308+492.014C449.183+492.014+454.756+486.444+454.756+479.564C454.756+472.694+449.183+467.124+442.308+467.124Z" fill-rule="evenodd" fill="#4ba5d1" opacity="1"/>
<path d="M442.308+494.894C433.881+494.894+426.987+487.994+426.987+479.564C426.987+471.144+433.881+464.244+442.308+464.244C450.735+464.244+457.629+471.144+457.629+479.564C457.629+487.994+450.735+494.894+442.308+494.894ZM442.308+469.994C437.041+469.994+432.732+474.304+432.732+479.564C432.732+484.834+437.041+489.144+442.308+489.144C447.575+489.144+451.884+484.834+451.884+479.564C451.884+474.304+447.575+469.994+442.308+469.994Z" fill-rule="evenodd" fill="#444b54" opacity="1"/>
<path d="M402.09+515.474C402.09+493.554+419.901+485.314+441.829+485.314C463.758+485.314+481.568+493.554+481.568+515.474" fill-rule="evenodd" fill="#ffffff" opacity="1"/>
<path d="M475.823+518.354C474.195+518.354+472.95+517.104+472.95+515.474C472.95+506.864+469.311+500.924+461.747+497.474C460.31+496.804+459.64+495.084+460.31+493.644C460.981+492.204+462.704+491.534+464.141+492.204C473.716+496.614+478.696+504.654+478.696+515.474C478.696+517.104+477.451+518.354+475.823+518.354Z" fill-rule="evenodd" fill="#b8e4ff" opacity="1"/>
<path d="M423.157+540.854C421.041+540.854+419.326+542.564+419.326+544.684C419.326+546.794+421.041+548.514+423.157+548.514C425.272+548.514+426.987+546.794+426.987+544.684C426.987+542.564+425.272+540.854+423.157+540.854ZM461.459+540.854C459.344+540.854+457.629+542.564+457.629+544.684C457.629+546.794+459.344+548.514+461.459+548.514C463.575+548.514+465.29+546.794+465.29+544.684C465.29+542.564+463.575+540.854+461.459+540.854Z" fill-rule="evenodd" fill="#444b54" opacity="1"/>
<path d="M478.696+513.084L406.878+513.084C401.611+513.084+397.302+517.394+397.302+522.664L397.302+522.664C397.302+527.924+401.611+532.234+406.878+532.234L478.696+532.234C483.962+532.234+488.271+527.924+488.271+522.664L488.271+522.664C488.271+517.394+483.962+513.084+478.696+513.084Z" fill-rule="evenodd" fill="#4ba5d1" opacity="1"/>
<path d="M499.762+565.084L496.985+556.844L496.985+556.844C496.315+554.834+496.602+552.724+497.464+550.814C498.23+548.994+498.709+546.884+498.709+544.784C498.709+538.074+494.4+532.424+488.463+530.324C490.282+528.024+491.24+525.054+491.048+521.894C490.761+517.394+487.984+513.654+484.154+511.744C482.43+493.074+467.205+482.444+441.829+482.444C415.879+482.444+400.558+493.554+399.313+512.894C396.536+514.994+394.621+518.254+394.43+521.994C394.047+529.174+399.792+535.104+406.878+535.104L472.95+535.104L478.696+535.104L483.1+535.104C488.175+535.104+492.676+538.934+492.963+544.014C493.346+549.564+488.942+554.264+483.388+554.264L480.036+554.264C478.887+554.264+477.834+554.934+477.451+555.984C471.418+570.054+457.629+579.154+442.308+579.154C426.987+579.154+413.102+570.054+407.07+555.884C406.591+554.734+405.537+553.974+404.293+554.064C402.186+554.264+401.037+556.274+401.803+558.094C405.633+567.184+412.336+574.464+420.571+579.154L398.835+579.154C395.866+579.154+392.993+577.814+391.27+575.424C389.546+573.024+389.067+570.054+390.025+567.284L392.993+558.284C394.142+554.834+393.759+551.194+392.227+547.844C390.599+544.204+391.557+539.894+394.621+537.314C395.77+536.354+396.249+534.534+395.292+533.284C394.334+531.944+392.419+531.664+391.078+532.714C385.812+537.024+384.088+544.304+386.961+550.424C387.918+552.444+387.918+554.734+387.248+556.844L384.471+565.084C382.843+569.864+383.513+575.134+386.578+579.154C389.355+582.894+393.664+584.994+398.356+584.994L442.021+584.994L442.308+584.994L485.973+584.994C490.665+584.994+494.878+582.894+497.751+579.154C500.72+575.134+501.39+569.774+499.762+565.084ZM441.829+488.184C454.469+488.184+475.057+491.254+478.217+510.214L407.261+510.214C406.591+510.214+406.016+510.304+405.346+510.404C408.41+491.254+429.094+488.184+441.829+488.184ZM478.696+529.364L472.95+529.364L406.878+529.364C403.144+529.364+400.175+526.394+400.175+522.664C400.175+518.924+403.144+515.954+406.878+515.954L478.696+515.954C482.43+515.954+485.399+518.924+485.399+522.664C485.399+526.394+482.43+529.364+478.696+529.364ZM493.251+575.424C491.527+577.814+488.846+579.154+485.973+579.154L464.045+579.154C471.705+574.844+478.025+568.244+481.951+560.004L483.483+560.004C486.356+560.004+489.037+559.144+491.335+557.804C491.431+558.094+491.527+558.374+491.623+558.664L494.495+567.284C495.453+570.054+494.974+573.024+493.251+575.424Z" fill-rule="evenodd" fill="#444b54" opacity="1"/>
<path d="M442.308+569.584C440.68+569.584+439.435+568.334+439.435+566.704C439.435+565.084+440.68+563.834+442.308+563.834C444.223+563.834+445.947+563.164+447.192+561.824C448.341+560.674+450.16+560.674+451.213+561.724C452.362+562.874+452.362+564.694+451.309+565.754C448.915+568.244+445.755+569.584+442.308+569.584Z" fill-rule="evenodd" fill="#444b54" opacity="1"/>
</g>
</g>
</svg>
