<?xml version="1.0" encoding="UTF-8" standalone="no"?> <!-- Created with Vectornator for iOS (http://vectornator.io/) --><!DOCTYPE svg PUBLIC "-//W3C//DTD SVG 1.1//EN" "http://www.w3.org/Graphics/SVG/1.1/DTD/svg11.dtd">
<svg height="100%" style="fill-rule:nonzero;clip-rule:evenodd;stroke-linecap:round;stroke-linejoin:round;" xmlns:xlink="http://www.w3.org/1999/xlink" xmlns="http://www.w3.org/2000/svg" xml:space="preserve" width="100%" xmlns:vectornator="http://vectornator.io" version="1.1" viewBox="0 0 1204.64 1181.28">
<metadata>
<vectornator:setting key="DimensionsVisible" value="1"/>
<vectornator:setting key="PencilOnly" value="0"/>
<vectornator:setting key="SnapToPoints" value="0"/>
<vectornator:setting key="OutlineMode" value="0"/>
<vectornator:setting key="RulersVisible" value="1"/>
<vectornator:setting key="CMYKEnabledKey" value="0"/>
<vectornator:setting key="SnapToEdges" value="0"/>
<vectornator:setting key="GuidesVisible" value="1"/>
<vectornator:setting key="DisplayWhiteBackground" value="0"/>
<vectornator:setting key="doHistoryDisabled" value="0"/>
<vectornator:setting key="TimeLapseWatermarkDisabled" value="0"/>
<vectornator:setting key="SnapToGuides" value="1"/>
<vectornator:setting key="DynamicGuides" value="0"/>
<vectornator:setting key="IsolateActiveLayer" value="0"/>
<vectornator:setting key="SnapToGrid" value="0"/>
<vectornator:setting key="Units" value="Points"/>
</metadata>
<defs/>
<g id="doctor-id" vectornator:layerName="doctor-id">
<path d="M158.433+558.47C151.593+558.47+146.043+564.02+146.043+570.86C146.043+577.71+151.593+583.25+158.433+583.25C165.273+583.25+170.823+577.71+170.823+570.86C170.823+564.02+165.273+558.47+158.433+558.47ZM574.963+258.51C569.633+258.51+565.313+262.82+565.313+268.15C565.313+273.48+569.633+277.79+574.963+277.79C580.283+277.79+584.603+273.48+584.603+268.15C584.603+262.82+580.283+258.51+574.963+258.51Z" fill-rule="evenodd" fill="#ffffff" opacity="1"/>
<path d="M585.831+7.55649C576.171+7.55649+568.341+15.3835+568.341+25.0385C568.341+34.6925+576.171+42.5195+585.831+42.5195C595.481+42.5195+603.311+34.6925+603.311+25.0385C603.311+15.3835+595.481+7.55649+585.831+7.55649ZM186.633+522.69C179.783+522.69+174.223+528.24+174.223+535.09C174.223+541.93+179.783+547.49+186.633+547.48C193.473+547.49+199.033+541.93+199.033+535.09C199.033+528.24+193.473+522.69+186.633+522.69Z" fill-rule="evenodd" fill="#428e92" opacity="1"/>
<path d="M626.523+118.707C341.323+118.707+110.133+349.9+110.133+635.09C110.133+920.29+341.323+1151.48+626.523+1151.48C911.713+1151.48+1142.9+920.29+1142.9+635.09C1142.9+349.9+911.713+118.707+626.523+118.707Z" fill-rule="evenodd" fill="#428e92" opacity="1"/>
<path d="M614.374+93.6406C592.224+93.6406+574.274+111.596+574.274+133.745C574.274+155.893+592.224+173.848+614.374+173.848C636.524+173.848+654.474+155.893+654.474+133.745C654.474+111.596+636.524+93.6406+614.374+93.6406Z" fill-rule="evenodd" fill="#00363a" opacity="1"/>
<path d="M525.615+59.8436C511.165+59.8436+499.455+71.5576+499.455+86.0076C499.455+100.458+511.165+112.172+525.615+112.172C540.065+112.172+551.775+100.458+551.775+86.0076C551.775+71.5576+540.065+59.8436+525.615+59.8436Z" fill-rule="evenodd" fill="#006064" opacity="1"/>
<path d="M150.805+319.775C143.437+319.765+136.625+323.695+132.941+330.085C129.246+336.475+129.246+344.355+132.941+350.745C136.625+357.135+143.437+361.065+150.805+361.055C158.185+361.065+164.996+357.135+168.681+350.745C172.375+344.355+172.375+336.475+168.681+330.085C164.996+323.695+158.185+319.765+150.805+319.775ZM584.417+199.488C553.997+199.488+529.337+224.145+529.337+254.565C529.337+284.995+553.997+309.655+584.417+309.655C614.837+309.655+639.507+284.995+639.507+254.565C639.507+224.145+614.837+199.488+584.417+199.488Z" fill-rule="evenodd" fill="#428e92" opacity="1"/>
<path d="M66.8527+351.14C52.4026+351.14+40.6926+362.85+40.6926+377.3C40.6926+391.75+52.4026+403.46+66.8527+403.46C81.3026+403.46+93.0226+391.75+93.0226+377.3C93.0226+362.85+81.3026+351.14+66.8527+351.14Z" fill-rule="evenodd" fill="#006064" opacity="1"/>
<path d="M157.983+390.14C138.973+390.14+123.563+405.55+123.563+424.57C123.563+443.58+138.973+458.99+157.983+458.99C176.993+458.99+192.413+443.58+192.413+424.57C192.413+405.55+176.993+390.14+157.983+390.14Z" fill-rule="evenodd" fill="#00363a" opacity="1"/>
<path d="M936.353+401L327.703+401C294.653+401+268.493+427.16+268.493+460.21L268.493+863.68C268.493+896.73+294.653+922.9+327.703+922.9L936.353+922.9C969.403+922.9+995.563+896.73+995.563+863.68L995.563+460.21C995.563+427.16+969.403+401+936.353+401ZM717.403+473.98C717.403+478.11+713.273+482.24+709.143+482.24L549.403+482.24C545.273+482.24+541.143+478.11+541.143+473.98L541.143+468.47C541.143+464.34+545.273+460.21+549.403+460.21L709.143+460.21C713.273+460.21+717.403+464.34+717.403+468.47L717.403+473.98Z" fill-rule="evenodd" fill="#fafaf7" opacity="1"/>
<path d="M936.353+928.4L327.703+928.4C291.903+928.4+262.983+899.49+262.983+863.68L262.983+460.21C262.983+424.41+291.903+395.49+327.703+395.49L936.353+395.49L936.353+395.49C972.153+395.49+1001.07+424.41+1001.07+460.21L1001.07+863.68C1001.07+899.49+972.153+928.4+936.353+928.4ZM327.703+406.51C297.413+406.51+272.623+431.29+272.623+461.59L272.623+863.68C272.623+893.98+297.413+918.76+327.703+918.76L936.353+918.76C966.643+918.76+991.433+893.98+991.433+863.68L991.433+460.21C991.433+429.92+966.643+405.13+936.353+405.13L327.703+405.13L327.703+406.51ZM709.143+487.75L549.403+487.75C542.523+487.75+535.633+482.24+535.633+473.98L535.633+468.47C535.633+461.59+541.143+454.7+549.403+454.7L709.143+454.7C716.023+454.7+722.913+460.21+722.913+468.47L722.913+473.98C722.913+480.87+716.023+487.75+709.143+487.75ZM549.403+464.34C548.033+464.34+546.653+465.72+546.653+467.1L546.653+472.6C546.653+473.98+548.033+475.36+549.403+475.36L709.143+475.36C710.523+475.36+711.893+473.98+711.893+472.6L711.893+467.1C711.893+465.72+710.523+464.34+709.143+464.34L549.403+464.34Z" fill-rule="evenodd" fill="#472b29" opacity="1"/>
<path d="M355.813+534.8L584.393+534.8L584.393+832.24L355.813+832.24L355.813+534.8Z" fill-rule="evenodd" fill="#ffd100" opacity="1"/>
<path d="M579.703+834.76L351.113+834.76C348.363+834.76+345.603+832.01+345.603+829.26L345.603+531.82C345.603+529.06+348.363+526.31+351.113+526.31L579.703+526.31C582.453+526.31+585.213+529.06+585.213+531.82L585.213+829.26C583.833+832.01+582.453+834.76+579.703+834.76ZM356.623+823.75L574.193+823.75L574.193+537.33L356.623+537.33L356.623+823.75ZM912.943+553.85L651.303+553.85C648.553+553.85+647.173+552.47+647.173+549.72C647.173+546.96+648.553+545.59+651.303+545.59L912.943+545.59C915.693+545.59+917.073+546.96+917.073+549.72C917.073+552.47+914.323+553.85+912.943+553.85ZM912.943+614.44L651.303+614.44C648.553+614.44+647.173+613.06+647.173+610.31C647.173+607.55+648.553+606.18+651.303+606.18L912.943+606.18C915.693+606.18+917.073+607.55+917.073+610.31C917.073+613.06+914.323+614.44+912.943+614.44ZM875.763+675.03L651.303+675.03C648.553+675.03+647.173+673.65+647.173+670.9C647.173+668.14+648.553+666.77+651.303+666.77L875.763+666.77C878.513+666.77+879.893+668.14+879.893+670.9C879.893+673.65+877.143+675.03+875.763+675.03ZM786.253+735.62L651.303+735.62C648.553+735.62+647.173+734.24+647.173+731.49C647.173+728.73+648.553+727.36+651.303+727.36L786.253+727.36C789.013+727.36+790.383+728.73+790.383+731.49C790.383+734.24+789.013+735.62+786.253+735.62Z" fill-rule="evenodd" fill="#472b29" opacity="1"/>
<path d="M524.653+660.63L530.483+660.63C544.673+660.63+554.123+675.29+548.293+688.37L548.293+688.37C546.243+692.94+545.933+697.99+547.503+702.71L552.233+716.9C556.493+729.51+547.033+742.6+533.633+742.6L482.093+742.6" fill-rule="evenodd" fill="#ff5252" opacity="1"/>
<path d="M529.693+660.63L528.113+660.63C521.653+630.05+494.383+607.03+461.913+607.03C429.443+607.03+402.173+630.05+395.703+660.63L394.133+660.63C382.783+660.63+373.633+669.77+373.633+681.12C373.633+692.47+382.783+701.61+394.133+701.61L399.643+701.61C410.053+725.73+434.013+742.6+461.913+742.6C489.813+742.6+513.773+725.73+524.173+701.61L529.693+701.61C541.043+701.61+550.183+692.47+550.183+681.12C550.183+669.77+541.043+660.63+529.693+660.63Z" fill-rule="evenodd" fill="#ffffff" opacity="1"/>
<path d="M398.863+674.81C398.863+669.93+399.493+665.2+400.433+660.63L393.023+660.63C378.843+660.63+369.383+675.29+375.213+688.37C377.263+692.94+377.573+697.99+376.003+702.71L371.273+716.9C367.013+729.51+376.473+742.6+389.873+742.6L430.383+742.6L423.603+724.94C408.633+713.43+398.863+695.31+398.863+674.81Z" fill-rule="evenodd" fill="#ff5252" opacity="1"/>
<path d="M81.2984+291.951C72.6984+291.951+65.6585+284.911+65.6585+276.301C65.6585+267.701+72.6984+260.661+81.2984+260.661C89.9085+260.661+96.9484+267.701+96.9484+276.301C96.9484+284.911+89.9085+291.951+81.2984+291.951Z" fill-rule="evenodd" fill="#00363a" opacity="1"/>
<path d="M517.083+637.77C514.403+637.77+512.353+635.72+512.353+633.04C512.353+618.85+506.363+609.08+493.913+603.41C491.543+602.3+490.443+599.46+491.543+597.1C492.653+594.74+495.483+593.63+497.853+594.74C513.613+601.99+521.813+615.23+521.813+633.04C521.813+635.72+519.763+637.77+517.083+637.77Z" fill-rule="evenodd" fill="#fdfcee" opacity="1"/>
<path d="M430.383+674.81C426.903+674.81+424.083+677.64+424.083+681.12C424.083+684.6+426.903+687.42+430.383+687.42C433.863+687.42+436.693+684.6+436.693+681.12C436.693+677.64+433.863+674.81+430.383+674.81ZM493.443+674.81C489.953+674.81+487.133+677.64+487.133+681.12C487.133+684.6+489.953+687.42+493.443+687.42C496.923+687.42+499.743+684.6+499.743+681.12C499.743+677.64+496.923+674.81+493.443+674.81Z" fill-rule="evenodd" fill="#444b54" opacity="1"/>
<path d="M521.813+629.1L403.583+629.1C394.913+629.1+387.823+636.19+387.823+644.86L387.823+644.86C387.823+653.53+394.913+660.63+403.583+660.63L521.813+660.63C530.483+660.63+537.573+653.53+537.573+644.86L537.573+644.86C537.573+636.19+530.483+629.1+521.813+629.1Z" fill-rule="evenodd" fill="#ff5252" opacity="1"/>
<path d="M556.493+714.69L551.923+701.14L551.923+701.14C550.813+697.83+551.293+694.36+552.703+691.21C553.973+688.21+554.753+684.74+554.753+681.28C554.753+670.24+547.663+660.94+537.893+657.47C540.883+653.69+542.463+648.8+542.143+643.6C541.673+636.19+537.103+630.05+530.793+626.89C527.963+596.15+502.893+578.66+461.123+578.66C418.403+578.66+393.183+596.94+391.133+628.78C386.563+632.25+383.413+637.61+383.093+643.76C382.463+655.58+391.923+665.36+403.583+665.36L512.353+665.36L521.813+665.36L529.063+665.36C537.413+665.36+544.823+671.66+545.303+680.02C545.933+689.16+538.683+696.88+529.533+696.88L524.023+696.88C522.123+696.88+520.393+697.99+519.763+699.72C509.833+722.89+487.133+737.87+461.913+737.87C436.693+737.87+413.833+722.89+403.903+699.56C403.113+697.67+401.383+696.41+399.333+696.57C395.863+696.88+393.973+700.19+395.233+703.19C401.543+718.16+412.573+730.14+426.133+737.87L390.343+737.87C385.463+737.87+380.733+735.66+377.893+731.72C375.053+727.78+374.263+722.89+375.843+718.32L380.733+703.5C382.623+697.83+381.993+691.84+379.473+686.32C376.793+680.33+378.363+673.24+383.413+668.98C385.303+667.4+386.093+664.41+384.513+662.36C382.933+660.15+379.783+659.68+377.573+661.41C368.913+668.51+366.073+680.49+370.803+690.58C372.373+693.89+372.373+697.67+371.273+701.14L366.703+714.69C364.023+722.58+365.123+731.25+370.173+737.87C374.743+744.01+381.833+747.48+389.553+747.48L461.443+747.48L461.913+747.48L533.793+747.48C541.513+747.48+548.453+744.01+553.183+737.87C558.063+731.25+559.173+722.42+556.493+714.69ZM521.813+655.9L512.353+655.9L403.583+655.9C397.443+655.9+392.553+651.01+392.553+644.86C392.553+638.72+397.443+633.83+403.583+633.83L521.813+633.83C527.963+633.83+532.843+638.72+532.843+644.86C532.843+651.01+527.963+655.9+521.813+655.9ZM545.773+731.72C542.933+735.66+538.523+737.87+533.793+737.87L497.693+737.87C510.303+730.77+520.713+719.9+527.173+706.34L529.693+706.34C534.423+706.34+538.833+704.92+542.623+702.71C542.773+703.19+542.933+703.66+543.093+704.13L547.823+718.32C549.393+722.89+548.613+727.78+545.773+731.72Z" fill-rule="evenodd" fill="#444b54" opacity="1"/>
<path d="M462.723+798.16L543.153+798.16C543.423+797.17+542.813+780.5+529.793+771.66C526.763+769.61+487.963+756.56+487.963+756.56C485.493+755.92+483.883+754.13+482.963+752.13C481.433+748.8+481.233+741.83+481.233+741.83C481.233+741.83+471.933+745.99+463.023+746.29C454.123+746.58+445.623+743.01+445.623+743.01C445.623+743.01+443.193+749.15+442.673+751.92C442.263+754.09+439.963+755.92+437.493+756.56L405.773+767.15C402.593+767.99+399.543+769.2+396.863+770.88C382.853+779.67+382.033+797.17+382.303+798.16L462.723+798.16Z" fill-rule="evenodd" fill="#ffffff" opacity="1"/>
<path d="M487.253+754.7C483.993+762.08+472.043+782.97+462.873+782.98C455.133+783+441.613+762.06+437.843+755.2C413.653+764.47+387.643+767.05+383.223+790.05C382.913+791.31+382.403+813.52+381.873+822.58C382.443+822.96+383.053+823.29+383.623+823.67L545.063+823.67C544.373+795.14+544.293+775.91+529.693+771.42C526.283+770.38+487.253+754.7+487.253+754.7Z" fill-rule="evenodd" fill="#00363a" opacity="1"/>
<path d="M461.913+722.1C459.233+722.1+457.183+720.05+457.183+717.37C457.183+714.69+459.233+712.65+461.913+712.65C465.063+712.65+467.903+711.54+469.953+709.33C471.843+707.44+474.833+707.44+476.573+709.18C478.463+711.07+478.463+714.06+476.733+715.8C472.793+719.9+467.583+722.1+461.913+722.1Z" fill-rule="evenodd" fill="#444b54" opacity="1"/>
<path d="M516.133+547.53C473.653+543.2+452.483+542.83+410.493+547.14C402.683+547.94+397.043+553.85+397.953+560.45L396.223+624.36C439.773+628.78+483.543+628.73+527.533+624.36L526.103+558.3C526.823+553.01+522.393+548.16+516.133+547.53Z" fill-rule="evenodd" fill="#ffffff" opacity="1"/>
<path stroke="#444b54" fill-rule="evenodd" stroke-width="2.09366" d="M461.553+629.97C439.523+629.97+417.593+628.87+395.923+626.67C394.553+626.53+393.533+625.5+393.563+624.3L395.293+560.39C394.803+557.03+395.993+553.37+398.653+550.4C401.463+547.27+405.563+545.29+410.183+544.82C451.243+540.62+472.093+540.69+516.443+545.21L516.443+545.21C520.213+545.59+523.583+547.23+525.903+549.81C528.163+552.32+529.173+555.43+528.733+558.57L530.183+624.31C530.213+625.51+529.183+626.54+527.823+626.67C505.743+628.87+483.593+629.97+461.553+629.97ZM398.943+622.28C440.333+626.32+482.663+626.31+524.813+622.27L523.433+558.34C523.713+556.11+523.093+554.23+521.723+552.7C520.283+551.1+518.193+550.08+515.833+549.85L515.833+549.85C471.983+545.38+451.363+545.3+410.803+549.46C407.593+549.78+404.763+551.15+402.833+553.3C401.063+555.27+400.263+557.71+400.603+560.17L398.943+622.28Z" fill="#444b54" stroke-linecap="butt" opacity="1" stroke-linejoin="miter"/>
<g opacity="1">
<path d="M484.503+585.68L468.533+585.68L468.533+571.68L452.563+571.68L452.563+585.68L436.593+585.68L436.593+599.67L452.563+599.67L452.563+613.66L468.533+613.66L468.533+599.67L484.503+599.67L484.503+585.68Z" fill-rule="evenodd" fill="#ff5252" opacity="1"/>
<path d="M468.533+614.82L452.563+614.82C451.823+614.82+451.233+614.3+451.233+613.66L451.233+600.83L436.593+600.83C435.853+600.83+435.263+600.31+435.263+599.67L435.263+585.68C435.263+585.03+435.853+584.51+436.593+584.51L451.233+584.51L451.233+571.68C451.233+571.04+451.823+570.52+452.563+570.52L468.533+570.52C469.263+570.52+469.863+571.04+469.863+571.68L469.863+584.51L484.503+584.51C485.233+584.51+485.833+585.03+485.833+585.68L485.833+599.67C485.833+600.31+485.233+600.83+484.503+600.83L469.863+600.83L469.863+613.66C469.863+614.3+469.263+614.82+468.533+614.82ZM453.893+612.49L467.203+612.49L467.203+599.67C467.203+599.02+467.793+598.5+468.533+598.5L483.173+598.5L483.173+586.84L468.533+586.84C467.793+586.84+467.203+586.32+467.203+585.68L467.203+572.85L453.893+572.85L453.893+585.68C453.893+586.32+453.293+586.84+452.563+586.84L437.923+586.84L437.923+598.5L452.563+598.5C453.293+598.5+453.893+599.02+453.893+599.67L453.893+612.49Z" fill-rule="evenodd" fill="#ff5252" opacity="1"/>
</g>
</g>
<g id="doctor-id copy" vectornator:layerName="doctor-id copy">
<path d="M158.433+558.47C151.593+558.47+146.043+564.02+146.043+570.86C146.043+577.71+151.593+583.25+158.433+583.25C165.273+583.25+170.823+577.71+170.823+570.86C170.823+564.02+165.273+558.47+158.433+558.47ZM574.963+258.51C569.633+258.51+565.313+262.82+565.313+268.15C565.313+273.48+569.633+277.79+574.963+277.79C580.283+277.79+584.603+273.48+584.603+268.15C584.603+262.82+580.283+258.51+574.963+258.51Z" fill-rule="evenodd" fill="#ffffff" opacity="1"/>
<path d="M585.831+7.55649C576.171+7.55649+568.341+15.3835+568.341+25.0385C568.341+34.6925+576.171+42.5195+585.831+42.5195C595.481+42.5195+603.311+34.6925+603.311+25.0385C603.311+15.3835+595.481+7.55649+585.831+7.55649ZM186.633+522.69C179.783+522.69+174.223+528.24+174.223+535.09C174.223+541.93+179.783+547.49+186.633+547.48C193.473+547.49+199.033+541.93+199.033+535.09C199.033+528.24+193.473+522.69+186.633+522.69Z" fill-rule="evenodd" fill="#428e92" opacity="1"/>
<path d="M626.523+118.707C341.323+118.707+110.133+349.9+110.133+635.09C110.133+920.29+341.323+1151.48+626.523+1151.48C911.713+1151.48+1142.9+920.29+1142.9+635.09C1142.9+349.9+911.713+118.707+626.523+118.707Z" fill-rule="evenodd" fill="#428e92" opacity="1"/>
<path d="M614.374+93.6406C592.224+93.6406+574.274+111.596+574.274+133.745C574.274+155.893+592.224+173.848+614.374+173.848C636.524+173.848+654.474+155.893+654.474+133.745C654.474+111.596+636.524+93.6406+614.374+93.6406Z" fill-rule="evenodd" fill="#00363a" opacity="1"/>
<path d="M525.615+59.8436C511.165+59.8436+499.455+71.5576+499.455+86.0076C499.455+100.458+511.165+112.172+525.615+112.172C540.065+112.172+551.775+100.458+551.775+86.0076C551.775+71.5576+540.065+59.8436+525.615+59.8436Z" fill-rule="evenodd" fill="#006064" opacity="1"/>
<path d="M150.805+319.775C143.437+319.765+136.625+323.695+132.941+330.085C129.246+336.475+129.246+344.355+132.941+350.745C136.625+357.135+143.437+361.065+150.805+361.055C158.185+361.065+164.996+357.135+168.681+350.745C172.375+344.355+172.375+336.475+168.681+330.085C164.996+323.695+158.185+319.765+150.805+319.775ZM584.417+199.488C553.997+199.488+529.337+224.145+529.337+254.565C529.337+284.995+553.997+309.655+584.417+309.655C614.837+309.655+639.507+284.995+639.507+254.565C639.507+224.145+614.837+199.488+584.417+199.488Z" fill-rule="evenodd" fill="#428e92" opacity="1"/>
<path d="M66.8527+351.14C52.4026+351.14+40.6926+362.85+40.6926+377.3C40.6926+391.75+52.4026+403.46+66.8527+403.46C81.3026+403.46+93.0226+391.75+93.0226+377.3C93.0226+362.85+81.3026+351.14+66.8527+351.14Z" fill-rule="evenodd" fill="#006064" opacity="1"/>
<path d="M157.983+390.14C138.973+390.14+123.563+405.55+123.563+424.57C123.563+443.58+138.973+458.99+157.983+458.99C176.993+458.99+192.413+443.58+192.413+424.57C192.413+405.55+176.993+390.14+157.983+390.14Z" fill-rule="evenodd" fill="#00363a" opacity="1"/>
<path d="M936.353+401L327.703+401C294.653+401+268.493+427.16+268.493+460.21L268.493+863.68C268.493+896.73+294.653+922.9+327.703+922.9L936.353+922.9C969.403+922.9+995.563+896.73+995.563+863.68L995.563+460.21C995.563+427.16+969.403+401+936.353+401ZM717.403+473.98C717.403+478.11+713.273+482.24+709.143+482.24L549.403+482.24C545.273+482.24+541.143+478.11+541.143+473.98L541.143+468.47C541.143+464.34+545.273+460.21+549.403+460.21L709.143+460.21C713.273+460.21+717.403+464.34+717.403+468.47L717.403+473.98Z" fill-rule="evenodd" fill="#fafaf7" opacity="1"/>
<path d="M936.353+928.4L327.703+928.4C291.903+928.4+262.983+899.49+262.983+863.68L262.983+460.21C262.983+424.41+291.903+395.49+327.703+395.49L936.353+395.49L936.353+395.49C972.153+395.49+1001.07+424.41+1001.07+460.21L1001.07+863.68C1001.07+899.49+972.153+928.4+936.353+928.4ZM327.703+406.51C297.413+406.51+272.623+431.29+272.623+461.59L272.623+863.68C272.623+893.98+297.413+918.76+327.703+918.76L936.353+918.76C966.643+918.76+991.433+893.98+991.433+863.68L991.433+460.21C991.433+429.92+966.643+405.13+936.353+405.13L327.703+405.13L327.703+406.51ZM709.143+487.75L549.403+487.75C542.523+487.75+535.633+482.24+535.633+473.98L535.633+468.47C535.633+461.59+541.143+454.7+549.403+454.7L709.143+454.7C716.023+454.7+722.913+460.21+722.913+468.47L722.913+473.98C722.913+480.87+716.023+487.75+709.143+487.75ZM549.403+464.34C548.033+464.34+546.653+465.72+546.653+467.1L546.653+472.6C546.653+473.98+548.033+475.36+549.403+475.36L709.143+475.36C710.523+475.36+711.893+473.98+711.893+472.6L711.893+467.1C711.893+465.72+710.523+464.34+709.143+464.34L549.403+464.34Z" fill-rule="evenodd" fill="#472b29" opacity="1"/>
<path d="M355.813+534.8L584.393+534.8L584.393+832.24L355.813+832.24L355.813+534.8Z" fill-rule="evenodd" fill="#ffd100" opacity="1"/>
<path d="M579.703+834.76L351.113+834.76C348.363+834.76+345.603+832.01+345.603+829.26L345.603+531.82C345.603+529.06+348.363+526.31+351.113+526.31L579.703+526.31C582.453+526.31+585.213+529.06+585.213+531.82L585.213+829.26C583.833+832.01+582.453+834.76+579.703+834.76ZM356.623+823.75L574.193+823.75L574.193+537.33L356.623+537.33L356.623+823.75ZM912.943+553.85L651.303+553.85C648.553+553.85+647.173+552.47+647.173+549.72C647.173+546.96+648.553+545.59+651.303+545.59L912.943+545.59C915.693+545.59+917.073+546.96+917.073+549.72C917.073+552.47+914.323+553.85+912.943+553.85ZM912.943+614.44L651.303+614.44C648.553+614.44+647.173+613.06+647.173+610.31C647.173+607.55+648.553+606.18+651.303+606.18L912.943+606.18C915.693+606.18+917.073+607.55+917.073+610.31C917.073+613.06+914.323+614.44+912.943+614.44ZM875.763+675.03L651.303+675.03C648.553+675.03+647.173+673.65+647.173+670.9C647.173+668.14+648.553+666.77+651.303+666.77L875.763+666.77C878.513+666.77+879.893+668.14+879.893+670.9C879.893+673.65+877.143+675.03+875.763+675.03ZM786.253+735.62L651.303+735.62C648.553+735.62+647.173+734.24+647.173+731.49C647.173+728.73+648.553+727.36+651.303+727.36L786.253+727.36C789.013+727.36+790.383+728.73+790.383+731.49C790.383+734.24+789.013+735.62+786.253+735.62Z" fill-rule="evenodd" fill="#472b29" opacity="1"/>
<path d="M524.653+660.63L530.483+660.63C544.673+660.63+554.123+675.29+548.293+688.37L548.293+688.37C546.243+692.94+545.933+697.99+547.503+702.71L552.233+716.9C556.493+729.51+547.033+742.6+533.633+742.6L482.093+742.6" fill-rule="evenodd" fill="#ff5252" opacity="1"/>
<path d="M529.693+660.63L528.113+660.63C521.653+630.05+494.383+607.03+461.913+607.03C429.443+607.03+402.173+630.05+395.703+660.63L394.133+660.63C382.783+660.63+373.633+669.77+373.633+681.12C373.633+692.47+382.783+701.61+394.133+701.61L399.643+701.61C410.053+725.73+434.013+742.6+461.913+742.6C489.813+742.6+513.773+725.73+524.173+701.61L529.693+701.61C541.043+701.61+550.183+692.47+550.183+681.12C550.183+669.77+541.043+660.63+529.693+660.63Z" fill-rule="evenodd" fill="#ffffff" opacity="1"/>
<path d="M398.863+674.81C398.863+669.93+399.493+665.2+400.433+660.63L393.023+660.63C378.843+660.63+369.383+675.29+375.213+688.37C377.263+692.94+377.573+697.99+376.003+702.71L371.273+716.9C367.013+729.51+376.473+742.6+389.873+742.6L430.383+742.6L423.603+724.94C408.633+713.43+398.863+695.31+398.863+674.81Z" fill-rule="evenodd" fill="#ff5252" opacity="1"/>
<path d="M81.2984+291.951C72.6984+291.951+65.6585+284.911+65.6585+276.301C65.6585+267.701+72.6984+260.661+81.2984+260.661C89.9085+260.661+96.9484+267.701+96.9484+276.301C96.9484+284.911+89.9085+291.951+81.2984+291.951Z" fill-rule="evenodd" fill="#00363a" opacity="1"/>
<path d="M517.083+637.77C514.403+637.77+512.353+635.72+512.353+633.04C512.353+618.85+506.363+609.08+493.913+603.41C491.543+602.3+490.443+599.46+491.543+597.1C492.653+594.74+495.483+593.63+497.853+594.74C513.613+601.99+521.813+615.23+521.813+633.04C521.813+635.72+519.763+637.77+517.083+637.77Z" fill-rule="evenodd" fill="#fdfcee" opacity="1"/>
<path d="M430.383+674.81C426.903+674.81+424.083+677.64+424.083+681.12C424.083+684.6+426.903+687.42+430.383+687.42C433.863+687.42+436.693+684.6+436.693+681.12C436.693+677.64+433.863+674.81+430.383+674.81ZM493.443+674.81C489.953+674.81+487.133+677.64+487.133+681.12C487.133+684.6+489.953+687.42+493.443+687.42C496.923+687.42+499.743+684.6+499.743+681.12C499.743+677.64+496.923+674.81+493.443+674.81Z" fill-rule="evenodd" fill="#444b54" opacity="1"/>
<path d="M521.813+629.1L403.583+629.1C394.913+629.1+387.823+636.19+387.823+644.86L387.823+644.86C387.823+653.53+394.913+660.63+403.583+660.63L521.813+660.63C530.483+660.63+537.573+653.53+537.573+644.86L537.573+644.86C537.573+636.19+530.483+629.1+521.813+629.1Z" fill-rule="evenodd" fill="#ff5252" opacity="1"/>
<path d="M556.493+714.69L551.923+701.14L551.923+701.14C550.813+697.83+551.293+694.36+552.703+691.21C553.973+688.21+554.753+684.74+554.753+681.28C554.753+670.24+547.663+660.94+537.893+657.47C540.883+653.69+542.463+648.8+542.143+643.6C541.673+636.19+537.103+630.05+530.793+626.89C527.963+596.15+502.893+578.66+461.123+578.66C418.403+578.66+393.183+596.94+391.133+628.78C386.563+632.25+383.413+637.61+383.093+643.76C382.463+655.58+391.923+665.36+403.583+665.36L512.353+665.36L521.813+665.36L529.063+665.36C537.413+665.36+544.823+671.66+545.303+680.02C545.933+689.16+538.683+696.88+529.533+696.88L524.023+696.88C522.123+696.88+520.393+697.99+519.763+699.72C509.833+722.89+487.133+737.87+461.913+737.87C436.693+737.87+413.833+722.89+403.903+699.56C403.113+697.67+401.383+696.41+399.333+696.57C395.863+696.88+393.973+700.19+395.233+703.19C401.543+718.16+412.573+730.14+426.133+737.87L390.343+737.87C385.463+737.87+380.733+735.66+377.893+731.72C375.053+727.78+374.263+722.89+375.843+718.32L380.733+703.5C382.623+697.83+381.993+691.84+379.473+686.32C376.793+680.33+378.363+673.24+383.413+668.98C385.303+667.4+386.093+664.41+384.513+662.36C382.933+660.15+379.783+659.68+377.573+661.41C368.913+668.51+366.073+680.49+370.803+690.58C372.373+693.89+372.373+697.67+371.273+701.14L366.703+714.69C364.023+722.58+365.123+731.25+370.173+737.87C374.743+744.01+381.833+747.48+389.553+747.48L461.443+747.48L461.913+747.48L533.793+747.48C541.513+747.48+548.453+744.01+553.183+737.87C558.063+731.25+559.173+722.42+556.493+714.69ZM521.813+655.9L512.353+655.9L403.583+655.9C397.443+655.9+392.553+651.01+392.553+644.86C392.553+638.72+397.443+633.83+403.583+633.83L521.813+633.83C527.963+633.83+532.843+638.72+532.843+644.86C532.843+651.01+527.963+655.9+521.813+655.9ZM545.773+731.72C542.933+735.66+538.523+737.87+533.793+737.87L497.693+737.87C510.303+730.77+520.713+719.9+527.173+706.34L529.693+706.34C534.423+706.34+538.833+704.92+542.623+702.71C542.773+703.19+542.933+703.66+543.093+704.13L547.823+718.32C549.393+722.89+548.613+727.78+545.773+731.72Z" fill-rule="evenodd" fill="#444b54" opacity="1"/>
<path d="M462.723+798.16L543.153+798.16C543.423+797.17+542.813+780.5+529.793+771.66C526.763+769.61+487.963+756.56+487.963+756.56C485.493+755.92+483.883+754.13+482.963+752.13C481.433+748.8+481.233+741.83+481.233+741.83C481.233+741.83+471.933+745.99+463.023+746.29C454.123+746.58+445.623+743.01+445.623+743.01C445.623+743.01+443.193+749.15+442.673+751.92C442.263+754.09+439.963+755.92+437.493+756.56L405.773+767.15C402.593+767.99+399.543+769.2+396.863+770.88C382.853+779.67+382.033+797.17+382.303+798.16L462.723+798.16Z" fill-rule="evenodd" fill="#ffffff" opacity="1"/>
<path d="M487.253+754.7C483.993+762.08+472.043+782.97+462.873+782.98C455.133+783+441.613+762.06+437.843+755.2C413.653+764.47+387.643+767.05+383.223+790.05C382.913+791.31+382.403+813.52+381.873+822.58C382.443+822.96+383.053+823.29+383.623+823.67L545.063+823.67C544.373+795.14+544.293+775.91+529.693+771.42C526.283+770.38+487.253+754.7+487.253+754.7Z" fill-rule="evenodd" fill="#00363a" opacity="1"/>
<path d="M461.913+722.1C459.233+722.1+457.183+720.05+457.183+717.37C457.183+714.69+459.233+712.65+461.913+712.65C465.063+712.65+467.903+711.54+469.953+709.33C471.843+707.44+474.833+707.44+476.573+709.18C478.463+711.07+478.463+714.06+476.733+715.8C472.793+719.9+467.583+722.1+461.913+722.1Z" fill-rule="evenodd" fill="#444b54" opacity="1"/>
<path d="M516.133+547.53C473.653+543.2+452.483+542.83+410.493+547.14C402.683+547.94+397.043+553.85+397.953+560.45L396.223+624.36C439.773+628.78+483.543+628.73+527.533+624.36L526.103+558.3C526.823+553.01+522.393+548.16+516.133+547.53Z" fill-rule="evenodd" fill="#ffffff" opacity="1"/>
<path stroke="#444b54" fill-rule="evenodd" stroke-width="2.09366" d="M461.553+629.97C439.523+629.97+417.593+628.87+395.923+626.67C394.553+626.53+393.533+625.5+393.563+624.3L395.293+560.39C394.803+557.03+395.993+553.37+398.653+550.4C401.463+547.27+405.563+545.29+410.183+544.82C451.243+540.62+472.093+540.69+516.443+545.21L516.443+545.21C520.213+545.59+523.583+547.23+525.903+549.81C528.163+552.32+529.173+555.43+528.733+558.57L530.183+624.31C530.213+625.51+529.183+626.54+527.823+626.67C505.743+628.87+483.593+629.97+461.553+629.97ZM398.943+622.28C440.333+626.32+482.663+626.31+524.813+622.27L523.433+558.34C523.713+556.11+523.093+554.23+521.723+552.7C520.283+551.1+518.193+550.08+515.833+549.85L515.833+549.85C471.983+545.38+451.363+545.3+410.803+549.46C407.593+549.78+404.763+551.15+402.833+553.3C401.063+555.27+400.263+557.71+400.603+560.17L398.943+622.28Z" fill="#444b54" stroke-linecap="butt" opacity="1" stroke-linejoin="miter"/>
<g opacity="1">
<path d="M484.503+585.68L468.533+585.68L468.533+571.68L452.563+571.68L452.563+585.68L436.593+585.68L436.593+599.67L452.563+599.67L452.563+613.66L468.533+613.66L468.533+599.67L484.503+599.67L484.503+585.68Z" fill-rule="evenodd" fill="#ff5252" opacity="1"/>
<path d="M468.533+614.82L452.563+614.82C451.823+614.82+451.233+614.3+451.233+613.66L451.233+600.83L436.593+600.83C435.853+600.83+435.263+600.31+435.263+599.67L435.263+585.68C435.263+585.03+435.853+584.51+436.593+584.51L451.233+584.51L451.233+571.68C451.233+571.04+451.823+570.52+452.563+570.52L468.533+570.52C469.263+570.52+469.863+571.04+469.863+571.68L469.863+584.51L484.503+584.51C485.233+584.51+485.833+585.03+485.833+585.68L485.833+599.67C485.833+600.31+485.233+600.83+484.503+600.83L469.863+600.83L469.863+613.66C469.863+614.3+469.263+614.82+468.533+614.82ZM453.893+612.49L467.203+612.49L467.203+599.67C467.203+599.02+467.793+598.5+468.533+598.5L483.173+598.5L483.173+586.84L468.533+586.84C467.793+586.84+467.203+586.32+467.203+585.68L467.203+572.85L453.893+572.85L453.893+585.68C453.893+586.32+453.293+586.84+452.563+586.84L437.923+586.84L437.923+598.5L452.563+598.5C453.293+598.5+453.893+599.02+453.893+599.67L453.893+612.49Z" fill-rule="evenodd" fill="#ff5252" opacity="1"/>
</g>
</g>
</svg>
